<svg width="32" height="32" viewBox="0 0 32 32" fill="none" xmlns="http://www.w3.org/2000/svg">
<path fill-rule="evenodd" clip-rule="evenodd" d="M28.781 4.40501H18.651V2.01801L2 4.58801V27.115L18.651 29.983V26.445H28.781C29.0878 26.4605 29.3883 26.354 29.6167 26.1486C29.8451 25.9432 29.9829 25.6557 30 25.349V5.50001C29.9827 5.19347 29.8448 4.90624 29.6164 4.70107C29.388 4.49589 29.0876 4.38946 28.781 4.40501V4.40501ZM28.941 25.531H18.617L18.6 23.642H21.087V21.442H18.581L18.569 20.142H21.087V17.942H18.55L18.538 16.642H21.087V14.442H18.53V13.142H21.087V10.942H18.53V9.64201H21.087V7.44201H18.53V5.44201H28.941V25.531Z" fill="#20744A"/>
<path d="M22.487 7.439H26.81V9.639H22.487V7.439Z" fill="#20744A"/>
<path d="M22.487 10.94H26.81V13.14H22.487V10.94Z" fill="#20744A"/>
<path d="M22.487 14.441H26.81V16.641H22.487V14.441Z" fill="#20744A"/>
<path d="M22.487 17.942H26.81V20.142H22.487V17.942Z" fill="#20744A"/>
<path d="M22.487 21.443H26.81V23.643H22.487V21.443Z" fill="#20744A"/>
<path fill-rule="evenodd" clip-rule="evenodd" d="M6.34699 10.673L8.49299 10.55L9.84199 14.259L11.436 10.397L13.582 10.274L10.976 15.54L13.582 20.819L11.313 20.666L9.78099 16.642L8.24799 20.513L6.16299 20.329L8.58499 15.666L6.34699 10.673V10.673Z" fill="white"/>
</svg>
